<?xml version="1.0" encoding="UTF-8"?>
<svg id="Layer_1" data-name="Layer 1" xmlns="http://www.w3.org/2000/svg" viewBox="0 0 139.97 67.57">
  <defs>
    <style>
      .cls-1 {
        fill: #fff;
      }

      .cls-2 {
        fill: #0041ff;
      }

      .cls-3 {
        fill: #ff0a00;
      }
    </style>
  </defs>
  <g>
    <g>
      <path class="cls-1" d="M0,12.37h5.08v.9H1.02v2.85h3.8v.91H1.02v2.86h4.13v.91H0v-8.42ZM3.09,9.6h1.14l-1.28,1.91h-.86l1-1.91Z"/>
      <path class="cls-1" d="M11.11,19.82h-.08c-.21.35-.63,1.1-1.84,1.1-1.58,0-2.68-1.27-2.68-3.27s1.1-3.26,2.7-3.26c1.23,0,1.61.76,1.83,1.09h.12v-1h.94v8.69h-.97v-3.34ZM11.12,17.63c0-1.42-.63-2.37-1.81-2.37s-1.84,1.04-1.84,2.37.63,2.42,1.84,2.42,1.81-.99,1.81-2.42Z"/>
      <path class="cls-1" d="M17.84,14.47h.97v6.32h-.97v-1.07h-.07c-.3.64-.92,1.15-1.88,1.15-1.18,0-2.04-.77-2.04-2.39v-4.01h.97v3.95c0,.92.58,1.51,1.38,1.51.72,0,1.63-.54,1.63-1.73v-3.73Z"/>
      <path class="cls-1" d="M20.39,12.76c0-.36.31-.66.69-.66s.69.3.69.66-.31.66-.69.66-.69-.3-.69-.66ZM20.58,14.47h.97v6.32h-.97v-6.32Z"/>
      <path class="cls-1" d="M23.33,14.47h.94v1h.12c.21-.33.59-1.09,1.83-1.09,1.6,0,2.7,1.27,2.7,3.26s-1.1,3.27-2.68,3.27c-1.22,0-1.63-.76-1.84-1.1h-.08v3.34h-.97v-8.69ZM26.1,20.05c1.22,0,1.84-1.07,1.84-2.42s-.61-2.37-1.84-2.37-1.81.95-1.81,2.37.64,2.42,1.81,2.42Z"/>
      <path class="cls-1" d="M30.09,17.68c0-1.94,1.14-3.29,2.85-3.29,1.32,0,2.71.81,2.71,3.16v.41h-4.59c.05,1.35.83,2.09,1.97,2.09.76,0,1.33-.33,1.58-.99l.94.26c-.3.95-1.23,1.6-2.52,1.6-1.83,0-2.95-1.3-2.95-3.24ZM34.67,17.12c0-1.07-.67-1.86-1.73-1.86-1.11,0-1.81.88-1.87,1.86h3.6Z"/>
    </g>
    <g>
      <path class="cls-1" d="M8.25,31.17c-.19-1.32-1.2-2.13-2.59-2.13-1.86,0-3.08,1.43-3.08,3.93s1.24,3.93,3.07,3.93c1.36,0,2.37-.74,2.61-2.03h2.57c-.28,2.23-2.14,4.28-5.22,4.28s-5.6-2.26-5.6-6.18,2.43-6.18,5.6-6.18c2.78,0,4.89,1.6,5.22,4.38h-2.57Z"/>
      <path class="cls-1" d="M12.66,26.96h2.54v4.96h5.16v-4.96h2.54v12.03h-2.54v-4.97h-5.16v4.97h-2.54v-12.03Z"/>
      <path class="cls-1" d="M27.55,38.99h-2.54v-12.03h2.54v12.03Z"/>
      <path class="cls-1" d="M28.99,38.99l4.15-12.03h3.28l4.15,12.03h-2.73l-.89-2.74h-4.34l-.89,2.74h-2.73ZM36.31,34.26l-1.48-4.55h-.09l-1.48,4.55h3.06Z"/>
      <path class="cls-1" d="M46.21,28.92c-1.25,0-1.93.57-1.93,1.35-.02.86.86,1.25,1.9,1.49l1.08.26c2.09.47,3.6,1.53,3.61,3.54,0,2.2-1.73,3.61-4.67,3.61s-4.78-1.35-4.85-3.95h2.46c.08,1.2,1.03,1.82,2.36,1.82s2.13-.6,2.13-1.48c0-.81-.73-1.19-2.04-1.5l-1.31-.33c-2.03-.49-3.28-1.5-3.28-3.28-.01-2.19,1.92-3.64,4.56-3.64s4.44,1.48,4.48,3.62h-2.44c-.09-.95-.84-1.5-2.06-1.5Z"/>
      <path class="cls-1" d="M57.05,28.92c-1.25,0-1.93.57-1.93,1.35-.02.86.86,1.25,1.9,1.49l1.08.26c2.09.47,3.6,1.53,3.61,3.54,0,2.2-1.73,3.61-4.67,3.61s-4.78-1.35-4.85-3.95h2.46c.08,1.2,1.03,1.82,2.36,1.82s2.13-.6,2.13-1.48c0-.81-.73-1.19-2.04-1.5l-1.31-.33c-2.03-.49-3.28-1.5-3.28-3.28-.01-2.19,1.92-3.64,4.56-3.64s4.44,1.48,4.48,3.62h-2.44c-.09-.95-.84-1.5-2.06-1.5Z"/>
      <path class="cls-1" d="M68.84,39.16c-3.21,0-5.63-2.26-5.63-6.18s2.43-6.18,5.63-6.18,5.63,2.24,5.63,6.18-2.44,6.18-5.63,6.18ZM68.84,29.05c-1.85,0-3.06,1.38-3.06,3.93s1.2,3.93,3.06,3.93,3.06-1.38,3.06-3.93-1.21-3.93-3.06-3.93Z"/>
      <path class="cls-1" d="M86.42,38.99h-2.2l-5.23-7.57h-.09v7.57h-2.54v-12.03h2.23l5.19,7.57h.11v-7.57h2.53v12.03Z"/>
    </g>
    <g>
      <path class="cls-1" d="M0,55.54v-12.03h4.3c3.63,0,5.85,2.26,5.85,6s-2.22,6.03-5.89,6.03H0ZM4.16,53.36c2.26,0,3.45-1.16,3.45-3.85s-1.19-3.82-3.45-3.82h-1.62v7.67h1.62Z"/>
      <path class="cls-1" d="M12.03,43.51h8.11v2.1h-5.56v2.87h5.15v2.1h-5.15v2.87h5.59v2.1h-8.13v-12.03Z"/>
      <path class="cls-1" d="M26.01,43.51h7.97v2.1h-5.42v2.87h4.89v2.1h-4.89v4.97h-2.54v-12.03Z"/>
      <path class="cls-1" d="M35.69,43.51h4.75c2.73,0,4.31,1.54,4.31,3.93,0,1.64-.76,2.84-2.13,3.42l2.56,4.68h-2.81l-2.28-4.27h-1.86v4.27h-2.54v-12.03ZM39.96,49.23c1.46,0,2.17-.6,2.17-1.79s-.71-1.85-2.18-1.85h-1.72v3.64h1.73Z"/>
      <path class="cls-1" d="M45.9,55.54l4.15-12.03h3.28l4.15,12.03h-2.73l-.89-2.74h-4.34l-.89,2.74h-2.73ZM53.22,50.81l-1.48-4.55h-.09l-1.48,4.55h3.06Z"/>
      <path class="cls-1" d="M68.99,55.54h-2.2l-5.23-7.57h-.09v7.57h-2.54v-12.03h2.23l5.19,7.57h.11v-7.57h2.53v12.03Z"/>
      <path class="cls-1" d="M79.13,47.72c-.19-1.32-1.2-2.13-2.59-2.13-1.86,0-3.08,1.43-3.08,3.93s1.24,3.93,3.07,3.93c1.36,0,2.37-.74,2.61-2.03h2.57c-.28,2.23-2.14,4.28-5.22,4.28s-5.6-2.26-5.6-6.18,2.43-6.18,5.6-6.18c2.78,0,4.89,1.6,5.22,4.38h-2.57Z"/>
      <path class="cls-1" d="M83.53,43.51h8.11v2.1h-5.56v2.87h5.15v2.1h-5.15v2.87h5.59v2.1h-8.13v-12.03Z"/>
      <path class="cls-1" d="M98.14,45.47c-1.25,0-1.93.57-1.93,1.35-.02.86.86,1.25,1.9,1.49l1.08.26c2.09.47,3.6,1.53,3.61,3.54,0,2.2-1.73,3.61-4.67,3.61s-4.78-1.35-4.85-3.95h2.46c.08,1.2,1.03,1.82,2.36,1.82s2.13-.6,2.13-1.48c0-.81-.73-1.19-2.04-1.5l-1.31-.33c-2.03-.49-3.28-1.5-3.28-3.28-.01-2.19,1.92-3.64,4.56-3.64s4.44,1.48,4.48,3.62h-2.44c-.09-.95-.84-1.5-2.06-1.5Z"/>
      <path class="cls-1" d="M112.55,47.72c-.19-1.32-1.2-2.13-2.59-2.13-1.86,0-3.08,1.43-3.08,3.93s1.24,3.93,3.07,3.93c1.36,0,2.37-.74,2.61-2.03h2.57c-.28,2.23-2.14,4.28-5.22,4.28s-5.6-2.26-5.6-6.18,2.43-6.18,5.6-6.18c2.78,0,4.89,1.6,5.22,4.38h-2.57Z"/>
      <path class="cls-1" d="M122.38,55.71c-3.21,0-5.63-2.26-5.63-6.18s2.43-6.18,5.63-6.18,5.63,2.24,5.63,6.18-2.44,6.18-5.63,6.18ZM122.38,45.6c-1.85,0-3.06,1.38-3.06,3.93s1.2,3.93,3.06,3.93,3.06-1.38,3.06-3.93-1.21-3.93-3.06-3.93Z"/>
    </g>
    <g>
      <path class="cls-1" d="M5.22,62.49c-.21-1-1.07-1.54-2.03-1.54-1.31,0-2.34,1.02-2.34,2.89s1.03,2.89,2.34,2.89c.96,0,1.82-.54,2.03-1.54h.87c-.27,1.48-1.45,2.36-2.91,2.36-1.85,0-3.19-1.43-3.19-3.71s1.34-3.71,3.19-3.71c1.45,0,2.64.87,2.91,2.36h-.87Z"/>
      <path class="cls-1" d="M7.14,64.78c0-1.69.99-2.81,2.46-2.81s2.46,1.11,2.46,2.81-.99,2.79-2.46,2.79-2.46-1.11-2.46-2.79ZM11.21,64.78c0-1.09-.51-2.06-1.62-2.06s-1.62.97-1.62,2.06.51,2.05,1.62,2.05,1.62-.96,1.62-2.05Z"/>
      <path class="cls-1" d="M16.73,62.04h.83v5.42h-.83v-.92h-.06c-.25.55-.79.99-1.61.99-1.02,0-1.75-.66-1.75-2.05v-3.44h.83v3.39c0,.79.49,1.3,1.19,1.3.62,0,1.4-.47,1.4-1.48v-3.2Z"/>
      <path class="cls-1" d="M19.08,62.04h.8v.82h.06c.2-.54.76-.9,1.41-.9.12,0,.34,0,.44.01v.85c-.06-.01-.29-.06-.51-.06-.79,0-1.37.54-1.37,1.27v3.43h-.83v-5.42Z"/>
      <path class="cls-1" d="M25.47,62.74h-1.16v3.16c0,.71.35.82.72.82.18,0,.3-.03.37-.04l.17.75c-.11.04-.31.1-.62.1-.71,0-1.47-.45-1.47-1.4v-3.39h-.82v-.71h.82v-1.3h.83v1.3h1.16v.71Z"/>
      <path class="cls-1" d="M26.56,60.57c0-.31.27-.56.59-.56s.59.25.59.56-.27.56-.59.56-.59-.25-.59-.56ZM26.73,62.04h.83v5.42h-.83v-5.42Z"/>
      <path class="cls-1" d="M28.83,64.79c0-1.66.97-2.82,2.44-2.82,1.13,0,2.33.69,2.33,2.71v.35h-3.93c.04,1.16.71,1.79,1.69,1.79.65,0,1.14-.28,1.35-.85l.8.23c-.25.82-1.06,1.37-2.16,1.37-1.57,0-2.53-1.11-2.53-2.78ZM32.75,64.31c0-.92-.58-1.59-1.48-1.59-.95,0-1.55.75-1.61,1.59h3.09Z"/>
      <path class="cls-1" d="M34.86,62.04h.8v.82h.06c.2-.54.76-.9,1.41-.9.12,0,.34,0,.44.01v.85c-.06-.01-.29-.06-.51-.06-.79,0-1.37.54-1.37,1.27v3.43h-.83v-5.42Z"/>
      <path class="cls-1" d="M41.65,63.46c-.14-.37-.44-.78-1.17-.78-.66,0-1.16.34-1.16.8,0,.42.29.63.93.79l.8.2c.97.24,1.44.71,1.44,1.47,0,.93-.86,1.62-2.12,1.62-1.11,0-1.87-.49-2.06-1.41l.79-.2c.15.58.58.87,1.26.87.78,0,1.27-.38,1.27-.85,0-.37-.26-.64-.8-.76l-.9-.21c-.99-.23-1.44-.73-1.44-1.48,0-.92.85-1.57,1.99-1.57,1.07,0,1.66.52,1.92,1.28l-.75.21Z"/>
      <path class="cls-1" d="M46.37,60.57c0-.31.27-.56.59-.56s.59.25.59.56-.27.56-.59.56-.59-.25-.59-.56ZM46.54,62.04h.83v5.42h-.83v-5.42Z"/>
      <path class="cls-1" d="M48.9,62.04h.8v.85h.07c.23-.58.75-.92,1.45-.92s1.19.34,1.45.92h.06c.28-.56.85-.92,1.62-.92.97,0,1.65.59,1.65,1.86v3.63h-.83v-3.63c0-.8-.51-1.11-1.1-1.11-.76,0-1.2.52-1.2,1.21v3.53h-.85v-3.71c0-.62-.44-1.03-1.07-1.03s-1.23.56-1.23,1.35v3.39h-.83v-5.42Z"/>
      <path class="cls-1" d="M57.53,62.04h.8v.85h.07c.23-.58.75-.92,1.45-.92s1.19.34,1.45.92h.06c.28-.56.85-.92,1.62-.92.97,0,1.65.59,1.65,1.86v3.63h-.83v-3.63c0-.8-.51-1.11-1.1-1.11-.76,0-1.2.52-1.2,1.21v3.53h-.85v-3.71c0-.62-.44-1.03-1.07-1.03s-1.23.56-1.23,1.35v3.39h-.83v-5.42Z"/>
      <path class="cls-1" d="M65.91,64.78c0-1.69.99-2.81,2.46-2.81s2.46,1.11,2.46,2.81-.99,2.79-2.46,2.79-2.46-1.11-2.46-2.79ZM69.98,64.78c0-1.09-.51-2.06-1.62-2.06s-1.62.97-1.62,2.06.51,2.05,1.62,2.05,1.62-.96,1.62-2.05Z"/>
      <path class="cls-1" d="M72.2,60.23h.83v2.67h.07c.18-.28.51-.93,1.57-.93,1.37,0,2.31,1.09,2.31,2.79s-.95,2.81-2.3,2.81c-1.04,0-1.4-.65-1.58-.95h-.1v.83h-.8v-7.22ZM74.57,66.82c1.04,0,1.58-.92,1.58-2.07s-.52-2.03-1.58-2.03-1.55.82-1.55,2.03.55,2.07,1.55,2.07Z"/>
      <path class="cls-1" d="M78.08,60.57c0-.31.27-.56.59-.56s.59.25.59.56-.27.56-.59.56-.59-.25-.59-.56ZM78.25,62.04h.83v5.42h-.83v-5.42Z"/>
      <path class="cls-1" d="M81.43,67.46h-.83v-7.22h.83v7.22Z"/>
      <path class="cls-1" d="M82.79,60.57c0-.31.27-.56.59-.56s.59.25.59.56-.27.56-.59.56-.59-.25-.59-.56ZM82.96,62.04h.83v5.42h-.83v-5.42Z"/>
      <path class="cls-1" d="M85.06,64.79c0-1.66.97-2.82,2.44-2.82,1.13,0,2.33.69,2.33,2.71v.35h-3.93c.04,1.16.71,1.79,1.69,1.79.65,0,1.14-.28,1.35-.85l.8.23c-.25.82-1.06,1.37-2.16,1.37-1.57,0-2.53-1.11-2.53-2.78ZM88.98,64.31c0-.92-.58-1.59-1.48-1.59-.95,0-1.55.75-1.61,1.59h3.09Z"/>
      <path class="cls-1" d="M91.1,62.04h.8v.82h.06c.2-.54.76-.9,1.41-.9.12,0,.34,0,.44.01v.85c-.06-.01-.29-.06-.51-.06-.79,0-1.37.54-1.37,1.27v3.43h-.83v-5.42Z"/>
      <path class="cls-1" d="M97.88,63.46c-.14-.37-.44-.78-1.17-.78-.66,0-1.16.34-1.16.8,0,.42.29.63.93.79l.8.2c.97.24,1.44.71,1.44,1.47,0,.93-.86,1.62-2.12,1.62-1.11,0-1.87-.49-2.06-1.41l.79-.2c.15.58.58.87,1.26.87.78,0,1.27-.38,1.27-.85,0-.37-.26-.64-.8-.76l-.9-.21c-.99-.23-1.44-.73-1.44-1.48,0-.92.85-1.57,1.99-1.57,1.07,0,1.66.52,1.92,1.28l-.75.21Z"/>
    </g>
  </g>
  <g>
    <polygon class="cls-3" points="139.97 23.42 139.94 28.46 116.69 5.11 97.02 24.89 97.02 30.27 93.41 33.91 93.41 23.41 116.69 0 139.97 23.42"/>
    <polygon class="cls-2" points="139.96 33.89 139.96 46.86 136.36 46.86 136.36 35.38 116.69 15.59 93.41 39 93.41 33.91 97.02 30.27 116.69 10.49 139.96 33.89"/>
  </g>
</svg>